<svg xmlns="http://www.w3.org/2000/svg" xmlns:xlink="http://www.w3.org/1999/xlink" width="960" zoomAndPan="magnify" viewBox="0 0 720 719.999996" height="960" preserveAspectRatio="xMidYMid meet" version="1.0"><defs><clipPath id="704a877d4d"><path d="M 0 103.148438 L 711 103.148438 L 711 616.898438 L 0 616.898438 Z M 0 103.148438 " clip-rule="nonzero"/></clipPath></defs><g clip-path="url(#704a877d4d)"><path fill="#009b3a" d="M 711 537.789062 C 711 581.421875 675.628906 616.796875 632 616.796875 L 79 616.796875 C 35.371094 616.796875 0 581.421875 0 537.789062 L 0 182.257812 C 0 138.625 35.371094 103.25 79 103.25 L 632 103.25 C 675.628906 103.25 711 138.625 711 182.257812 Z M 711 537.789062 " fill-opacity="1" fill-rule="nonzero"/></g><path fill="#fedf01" d="M 646.378906 360.023438 L 355.5 579.742188 L 64.621094 360.023438 L 355.5 140.285156 Z M 646.378906 360.023438 " fill-opacity="1" fill-rule="nonzero"/><path fill="#002776" d="M 482.570312 358.519531 C 482.570312 360.609375 482.519531 362.695312 482.417969 364.78125 C 482.316406 366.867188 482.160156 368.945312 481.957031 371.023438 C 481.753906 373.101562 481.496094 375.171875 481.191406 377.238281 C 480.882812 379.304688 480.527344 381.359375 480.121094 383.40625 C 479.714844 385.453125 479.257812 387.488281 478.75 389.515625 C 478.242188 391.539062 477.683594 393.550781 477.078125 395.550781 C 476.472656 397.546875 475.820312 399.527344 475.117188 401.492188 C 474.414062 403.460938 473.660156 405.40625 472.863281 407.335938 C 472.0625 409.265625 471.21875 411.171875 470.324219 413.058594 C 469.433594 414.945312 468.496094 416.808594 467.511719 418.652344 C 466.527344 420.492188 465.5 422.308594 464.425781 424.097656 C 463.351562 425.890625 462.234375 427.652344 461.078125 429.386719 C 459.917969 431.125 458.714844 432.832031 457.472656 434.507812 C 456.226562 436.183594 454.945312 437.828125 453.621094 439.441406 C 452.296875 441.054688 450.933594 442.636719 449.53125 444.183594 C 448.128906 445.730469 446.691406 447.242188 445.214844 448.71875 C 443.738281 450.195312 442.226562 451.632812 440.679688 453.035156 C 439.132812 454.4375 437.554688 455.800781 435.941406 457.125 C 434.328125 458.449219 432.679688 459.734375 431.003906 460.976562 C 429.328125 462.21875 427.621094 463.421875 425.886719 464.582031 C 424.152344 465.742188 422.386719 466.859375 420.597656 467.929688 C 418.808594 469.003906 416.992188 470.03125 415.152344 471.015625 C 413.308594 472 411.445312 472.9375 409.558594 473.832031 C 407.671875 474.722656 405.765625 475.570312 403.835938 476.367188 C 401.90625 477.167969 399.960938 477.917969 397.996094 478.621094 C 396.03125 479.324219 394.046875 479.980469 392.050781 480.585938 C 390.054688 481.191406 388.042969 481.75 386.015625 482.253906 C 383.992188 482.761719 381.957031 483.21875 379.910156 483.628906 C 377.863281 484.035156 375.804688 484.390625 373.742188 484.699219 C 371.675781 485.003906 369.605469 485.257812 367.527344 485.464844 C 365.449219 485.667969 363.371094 485.824219 361.285156 485.925781 C 359.199219 486.027344 357.113281 486.078125 355.027344 486.078125 C 352.9375 486.078125 350.851562 486.027344 348.769531 485.925781 C 346.683594 485.824219 344.601562 485.667969 342.523438 485.464844 C 340.445312 485.257812 338.375 485.003906 336.3125 484.699219 C 334.246094 484.390625 332.191406 484.035156 330.144531 483.628906 C 328.097656 483.21875 326.058594 482.761719 324.035156 482.253906 C 322.011719 481.75 320 481.191406 318 480.585938 C 316.003906 479.980469 314.023438 479.324219 312.058594 478.621094 C 310.09375 477.917969 308.144531 477.167969 306.214844 476.367188 C 304.289062 475.570312 302.378906 474.722656 300.492188 473.832031 C 298.605469 472.9375 296.742188 472 294.902344 471.015625 C 293.0625 470.03125 291.246094 469.003906 289.453125 467.929688 C 287.664062 466.859375 285.902344 465.742188 284.164062 464.582031 C 282.429688 463.421875 280.722656 462.21875 279.046875 460.976562 C 277.371094 459.734375 275.726562 458.449219 274.113281 457.125 C 272.5 455.800781 270.917969 454.4375 269.371094 453.035156 C 267.824219 451.632812 266.3125 450.195312 264.835938 448.71875 C 263.363281 447.242188 261.921875 445.730469 260.519531 444.183594 C 259.121094 442.636719 257.757812 441.054688 256.433594 439.441406 C 255.109375 437.828125 253.824219 436.183594 252.582031 434.507812 C 251.335938 432.832031 250.136719 431.125 248.976562 429.386719 C 247.816406 427.652344 246.699219 425.890625 245.625 424.097656 C 244.554688 422.308594 243.523438 420.492188 242.539062 418.652344 C 241.558594 416.808594 240.617188 414.945312 239.726562 413.058594 C 238.832031 411.171875 237.988281 409.265625 237.1875 407.335938 C 236.390625 405.40625 235.640625 403.460938 234.9375 401.492188 C 234.234375 399.527344 233.578125 397.546875 232.972656 395.550781 C 232.367188 393.550781 231.808594 391.539062 231.304688 389.515625 C 230.796875 387.488281 230.339844 385.453125 229.929688 383.40625 C 229.523438 381.359375 229.167969 379.304688 228.859375 377.238281 C 228.554688 375.171875 228.300781 373.101562 228.09375 371.023438 C 227.890625 368.945312 227.738281 366.867188 227.632812 364.78125 C 227.53125 362.695312 227.480469 360.609375 227.480469 358.519531 C 227.480469 356.433594 227.53125 354.347656 227.632812 352.261719 C 227.738281 350.175781 227.890625 348.097656 228.09375 346.019531 C 228.300781 343.941406 228.554688 341.871094 228.859375 339.804688 C 229.167969 337.738281 229.523438 335.683594 229.929688 333.636719 C 230.339844 331.589844 230.796875 329.550781 231.304688 327.527344 C 231.808594 325.503906 232.367188 323.492188 232.972656 321.492188 C 233.578125 319.496094 234.234375 317.515625 234.9375 315.546875 C 235.640625 313.582031 236.390625 311.636719 237.1875 309.707031 C 237.988281 307.777344 238.832031 305.871094 239.726562 303.984375 C 240.617188 302.097656 241.558594 300.234375 242.539062 298.390625 C 243.523438 296.550781 244.554688 294.734375 245.625 292.945312 C 246.699219 291.152344 247.816406 289.390625 248.976562 287.65625 C 250.136719 285.917969 251.335938 284.210938 252.582031 282.535156 C 253.824219 280.859375 255.109375 279.214844 256.433594 277.601562 C 257.757812 275.984375 259.121094 274.40625 260.519531 272.859375 C 261.921875 271.3125 263.363281 269.800781 264.835938 268.324219 C 266.3125 266.847656 267.824219 265.410156 269.371094 264.007812 C 270.917969 262.605469 272.5 261.242188 274.113281 259.917969 C 275.726562 258.59375 277.371094 257.308594 279.046875 256.066406 C 280.722656 254.824219 282.429688 253.621094 284.164062 252.460938 C 285.902344 251.300781 287.664062 250.183594 289.453125 249.113281 C 291.246094 248.039062 293.0625 247.011719 294.902344 246.027344 C 296.742188 245.042969 298.605469 244.105469 300.492188 243.210938 C 302.378906 242.320312 304.289062 241.472656 306.214844 240.675781 C 308.144531 239.875 310.09375 239.125 312.058594 238.421875 C 314.023438 237.71875 316.003906 237.0625 318 236.457031 C 320 235.851562 322.011719 235.292969 324.035156 234.785156 C 326.058594 234.28125 328.097656 233.824219 330.144531 233.414062 C 332.191406 233.007812 334.246094 232.652344 336.3125 232.34375 C 338.375 232.039062 340.445312 231.78125 342.523438 231.578125 C 344.601562 231.375 346.683594 231.21875 348.769531 231.117188 C 350.851562 231.015625 352.9375 230.964844 355.027344 230.964844 C 357.113281 230.964844 359.199219 231.015625 361.285156 231.117188 C 363.371094 231.21875 365.449219 231.375 367.527344 231.578125 C 369.605469 231.78125 371.675781 232.039062 373.742188 232.34375 C 375.804688 232.652344 377.863281 233.007812 379.910156 233.414062 C 381.957031 233.824219 383.992188 234.28125 386.015625 234.785156 C 388.042969 235.292969 390.054688 235.851562 392.050781 236.457031 C 394.046875 237.0625 396.03125 237.71875 397.996094 238.421875 C 399.960938 239.125 401.90625 239.875 403.835938 240.675781 C 405.765625 241.472656 407.671875 242.320312 409.558594 243.210938 C 411.445312 244.105469 413.308594 245.042969 415.152344 246.027344 C 416.992188 247.011719 418.808594 248.039062 420.597656 249.113281 C 422.386719 250.183594 424.152344 251.300781 425.886719 252.460938 C 427.621094 253.621094 429.328125 254.824219 431.003906 256.066406 C 432.679688 257.308594 434.328125 258.59375 435.941406 259.917969 C 437.554688 261.242188 439.132812 262.605469 440.679688 264.007812 C 442.226562 265.410156 443.738281 266.847656 445.214844 268.324219 C 446.691406 269.800781 448.128906 271.3125 449.53125 272.859375 C 450.933594 274.40625 452.296875 275.984375 453.621094 277.601562 C 454.945312 279.214844 456.226562 280.859375 457.472656 282.535156 C 458.714844 284.210938 459.917969 285.917969 461.078125 287.65625 C 462.234375 289.390625 463.351562 291.152344 464.425781 292.945312 C 465.5 294.734375 466.527344 296.550781 467.511719 298.390625 C 468.496094 300.234375 469.433594 302.097656 470.324219 303.984375 C 471.21875 305.871094 472.0625 307.777344 472.863281 309.707031 C 473.660156 311.636719 474.414062 313.582031 475.117188 315.546875 C 475.820312 317.515625 476.472656 319.496094 477.078125 321.492188 C 477.683594 323.492188 478.242188 325.503906 478.75 327.527344 C 479.257812 329.550781 479.714844 331.589844 480.121094 333.636719 C 480.527344 335.683594 480.882812 337.738281 481.191406 339.804688 C 481.496094 341.871094 481.753906 343.941406 481.957031 346.019531 C 482.160156 348.097656 482.316406 350.175781 482.417969 352.261719 C 482.519531 354.347656 482.570312 356.433594 482.570312 358.519531 Z M 482.570312 358.519531 " fill-opacity="1" fill-rule="nonzero"/><path fill="#cbe9d4" d="M 242.472656 298.535156 C 235.914062 310.800781 231.449219 324.273438 229.199219 338.492188 C 308.101562 332.765625 415.183594 375.84375 461.144531 429.253906 C 469.082031 417.324219 474.96875 403.96875 478.582031 389.671875 C 421.859375 334.207031 322.222656 298.21875 242.472656 298.535156 Z M 242.472656 298.535156 " fill-opacity="1" fill-rule="nonzero"/><path fill="#88c9f9" d="M 237 364.625 L 256.75 364.625 L 256.75 384.375 L 237 384.375 Z M 256.75 404.128906 L 276.5 404.128906 L 276.5 423.878906 L 256.75 423.878906 Z M 256.75 404.128906 " fill-opacity="1" fill-rule="nonzero"/><path fill="#55acee" d="M 296.25 364.625 L 316 364.625 L 316 384.375 L 296.25 384.375 Z M 335.75 384.375 L 355.5 384.375 L 355.5 404.128906 L 335.75 404.128906 Z M 414.75 423.878906 L 434.5 423.878906 L 434.5 443.632812 L 414.75 443.632812 Z M 355.5 443.632812 L 375.25 443.632812 L 375.25 463.382812 L 355.5 463.382812 Z M 414.75 325.121094 L 434.5 325.121094 L 434.5 344.871094 L 414.75 344.871094 Z M 414.75 325.121094 " fill-opacity="1" fill-rule="nonzero"/><path fill="#3b88c3" d="M 375.25 404.128906 L 395 404.128906 L 395 423.878906 L 375.25 423.878906 Z M 375.25 404.128906 " fill-opacity="1" fill-rule="nonzero"/></svg>