<svg xmlns="http://www.w3.org/2000/svg" xmlns:xlink="http://www.w3.org/1999/xlink" width="960" zoomAndPan="magnify" viewBox="0 0 720 719.999996" height="960" preserveAspectRatio="xMidYMid meet" version="1.0"><defs><clipPath id="c503f5bee3"><path d="M 4.496094 103.148438 L 715.496094 103.148438 L 715.496094 616.898438 L 4.496094 616.898438 Z M 4.496094 103.148438 " clip-rule="nonzero"/></clipPath></defs><g clip-path="url(#c503f5bee3)"><path fill="#eeeeee" d="M 715.496094 537.789062 C 715.496094 581.421875 680.121094 616.796875 636.496094 616.796875 L 83.496094 616.796875 C 39.867188 616.796875 4.496094 581.421875 4.496094 537.789062 L 4.496094 182.257812 C 4.496094 138.625 39.867188 103.25 83.496094 103.25 L 636.496094 103.25 C 680.121094 103.25 715.496094 138.625 715.496094 182.257812 Z M 715.496094 537.789062 " fill-opacity="1" fill-rule="nonzero"/></g><path fill="#ed1b2f" d="M 498.246094 360.023438 C 498.246094 362.285156 498.1875 364.546875 498.078125 366.808594 C 497.96875 369.066406 497.800781 371.324219 497.578125 373.574219 C 497.355469 375.828125 497.082031 378.070312 496.75 380.308594 C 496.417969 382.546875 496.03125 384.777344 495.589844 386.996094 C 495.148438 389.214844 494.652344 391.421875 494.101562 393.617188 C 493.550781 395.8125 492.949219 397.992188 492.292969 400.15625 C 491.636719 402.324219 490.925781 404.472656 490.164062 406.601562 C 489.402344 408.730469 488.585938 410.84375 487.722656 412.933594 C 486.855469 415.023438 485.9375 417.089844 484.972656 419.136719 C 484.003906 421.183594 482.988281 423.203125 481.921875 425.199219 C 480.855469 427.195312 479.738281 429.164062 478.574219 431.105469 C 477.414062 433.042969 476.203125 434.957031 474.945312 436.835938 C 473.6875 438.71875 472.386719 440.566406 471.039062 442.386719 C 469.691406 444.203125 468.300781 445.984375 466.863281 447.734375 C 465.429688 449.484375 463.949219 451.199219 462.429688 452.875 C 460.910156 454.550781 459.351562 456.1875 457.753906 457.789062 C 456.152344 459.390625 454.515625 460.949219 452.839844 462.46875 C 451.160156 463.988281 449.449219 465.464844 447.699219 466.902344 C 445.949219 468.335938 444.167969 469.726562 442.351562 471.074219 C 440.53125 472.425781 438.683594 473.726562 436.800781 474.984375 C 434.921875 476.242188 433.011719 477.449219 431.070312 478.613281 C 429.128906 479.777344 427.160156 480.890625 425.164062 481.960938 C 423.171875 483.027344 421.148438 484.042969 419.105469 485.011719 C 417.058594 485.976562 414.992188 486.894531 412.902344 487.761719 C 410.808594 488.625 408.699219 489.441406 406.570312 490.203125 C 404.441406 490.964844 402.292969 491.675781 400.125 492.332031 C 397.960938 492.988281 395.78125 493.589844 393.585938 494.140625 C 391.390625 494.691406 389.183594 495.1875 386.964844 495.628906 C 384.746094 496.070312 382.519531 496.457031 380.28125 496.789062 C 378.042969 497.121094 375.796875 497.398438 373.546875 497.621094 C 371.292969 497.839844 369.039062 498.007812 366.777344 498.117188 C 364.519531 498.230469 362.257812 498.285156 359.996094 498.285156 C 357.730469 498.285156 355.472656 498.230469 353.210938 498.117188 C 350.953125 498.007812 348.695312 497.839844 346.445312 497.621094 C 344.191406 497.398438 341.949219 497.121094 339.710938 496.789062 C 337.472656 496.457031 335.242188 496.070312 333.023438 495.628906 C 330.804688 495.1875 328.597656 494.691406 326.402344 494.140625 C 324.207031 493.589844 322.027344 492.988281 319.863281 492.332031 C 317.699219 491.675781 315.550781 490.964844 313.417969 490.203125 C 311.289062 489.441406 309.179688 488.625 307.089844 487.761719 C 305 486.894531 302.929688 485.976562 300.886719 485.011719 C 298.839844 484.042969 296.820312 483.027344 294.824219 481.960938 C 292.828125 480.890625 290.859375 479.777344 288.921875 478.613281 C 286.980469 477.449219 285.070312 476.242188 283.1875 474.984375 C 281.304688 473.726562 279.457031 472.425781 277.640625 471.074219 C 275.820312 469.726562 274.039062 468.335938 272.289062 466.902344 C 270.542969 465.464844 268.828125 463.988281 267.152344 462.46875 C 265.476562 460.949219 263.835938 459.390625 262.238281 457.789062 C 260.636719 456.1875 259.078125 454.550781 257.558594 452.875 C 256.039062 451.199219 254.5625 449.484375 253.125 447.734375 C 251.691406 445.984375 250.300781 444.203125 248.953125 442.386719 C 247.605469 440.566406 246.300781 438.71875 245.042969 436.835938 C 243.789062 434.957031 242.578125 433.042969 241.414062 431.105469 C 240.25 429.164062 239.136719 427.195312 238.070312 425.199219 C 237.003906 423.203125 235.984375 421.183594 235.019531 419.136719 C 234.050781 417.089844 233.132812 415.023438 232.269531 412.933594 C 231.402344 410.84375 230.589844 408.730469 229.828125 406.601562 C 229.0625 404.472656 228.355469 402.324219 227.699219 400.15625 C 227.042969 397.992188 226.4375 395.8125 225.886719 393.617188 C 225.339844 391.421875 224.84375 389.214844 224.402344 386.996094 C 223.960938 384.777344 223.574219 382.546875 223.242188 380.308594 C 222.910156 378.070312 222.632812 375.828125 222.410156 373.574219 C 222.1875 371.324219 222.023438 369.066406 221.910156 366.808594 C 221.800781 364.546875 221.746094 362.285156 221.746094 360.023438 C 221.746094 357.757812 221.800781 355.5 221.910156 353.238281 C 222.023438 350.976562 222.1875 348.722656 222.410156 346.46875 C 222.632812 344.21875 222.910156 341.972656 223.242188 339.734375 C 223.574219 337.496094 223.960938 335.269531 224.402344 333.050781 C 224.84375 330.828125 225.339844 328.621094 225.886719 326.425781 C 226.4375 324.234375 227.042969 322.050781 227.699219 319.886719 C 228.355469 317.722656 229.0625 315.574219 229.828125 313.441406 C 230.589844 311.3125 231.402344 309.203125 232.269531 307.113281 C 233.132812 305.019531 234.050781 302.953125 235.019531 300.90625 C 235.984375 298.863281 237.003906 296.839844 238.070312 294.847656 C 239.136719 292.851562 240.25 290.882812 241.414062 288.941406 C 242.578125 287 243.789062 285.089844 245.042969 283.207031 C 246.300781 281.328125 247.605469 279.476562 248.953125 277.660156 C 250.300781 275.84375 251.691406 274.058594 253.125 272.308594 C 254.5625 270.558594 256.039062 268.847656 257.558594 267.171875 C 259.078125 265.496094 260.636719 263.855469 262.238281 262.257812 C 263.835938 260.65625 265.476562 259.097656 267.152344 257.578125 C 268.828125 256.058594 270.542969 254.578125 272.289062 253.144531 C 274.039062 251.707031 275.820312 250.316406 277.640625 248.96875 C 279.457031 247.621094 281.304688 246.320312 283.1875 245.0625 C 285.070312 243.804688 286.980469 242.59375 288.921875 241.429688 C 290.859375 240.265625 292.828125 239.152344 294.824219 238.085938 C 296.820312 237.019531 298.839844 236.003906 300.886719 235.035156 C 302.929688 234.066406 305 233.152344 307.089844 232.285156 C 309.179688 231.417969 311.289062 230.605469 313.417969 229.84375 C 315.550781 229.078125 317.699219 228.371094 319.863281 227.714844 C 322.027344 227.054688 324.207031 226.453125 326.402344 225.902344 C 328.597656 225.355469 330.804688 224.859375 333.023438 224.417969 C 335.242188 223.976562 337.472656 223.589844 339.710938 223.257812 C 341.949219 222.925781 344.191406 222.648438 346.445312 222.425781 C 348.695312 222.203125 350.953125 222.039062 353.210938 221.925781 C 355.472656 221.816406 357.730469 221.761719 359.996094 221.761719 C 362.257812 221.761719 364.519531 221.816406 366.777344 221.925781 C 369.039062 222.039062 371.292969 222.203125 373.546875 222.425781 C 375.796875 222.648438 378.042969 222.925781 380.28125 223.257812 C 382.519531 223.589844 384.746094 223.976562 386.964844 224.417969 C 389.183594 224.859375 391.390625 225.355469 393.585938 225.902344 C 395.78125 226.453125 397.960938 227.054688 400.125 227.714844 C 402.292969 228.371094 404.441406 229.078125 406.570312 229.84375 C 408.699219 230.605469 410.808594 231.417969 412.902344 232.285156 C 414.992188 233.152344 417.058594 234.066406 419.105469 235.035156 C 421.148438 236.003906 423.171875 237.019531 425.164062 238.085938 C 427.160156 239.152344 429.128906 240.265625 431.070312 241.429688 C 433.011719 242.59375 434.921875 243.804688 436.800781 245.0625 C 438.683594 246.320312 440.53125 247.621094 442.351562 248.96875 C 444.167969 250.316406 445.949219 251.707031 447.699219 253.144531 C 449.449219 254.578125 451.160156 256.058594 452.839844 257.578125 C 454.515625 259.097656 456.152344 260.65625 457.753906 262.257812 C 459.351562 263.855469 460.910156 265.496094 462.429688 267.171875 C 463.949219 268.847656 465.429688 270.558594 466.863281 272.308594 C 468.300781 274.058594 469.691406 275.84375 471.039062 277.660156 C 472.386719 279.476562 473.6875 281.328125 474.945312 283.207031 C 476.203125 285.089844 477.414062 287 478.574219 288.941406 C 479.738281 290.882812 480.855469 292.851562 481.921875 294.847656 C 482.988281 296.839844 484.003906 298.863281 484.972656 300.90625 C 485.9375 302.953125 486.855469 305.019531 487.722656 307.113281 C 488.585938 309.203125 489.402344 311.3125 490.164062 313.441406 C 490.925781 315.574219 491.636719 317.722656 492.292969 319.886719 C 492.949219 322.050781 493.550781 324.234375 494.101562 326.425781 C 494.652344 328.621094 495.148438 330.828125 495.589844 333.050781 C 496.03125 335.269531 496.417969 337.496094 496.75 339.734375 C 497.082031 341.972656 497.355469 344.21875 497.578125 346.46875 C 497.800781 348.722656 497.96875 350.976562 498.078125 353.238281 C 498.1875 355.5 498.246094 357.757812 498.246094 360.023438 Z M 498.246094 360.023438 " fill-opacity="1" fill-rule="nonzero"/></svg>