<svg xmlns="http://www.w3.org/2000/svg" xmlns:xlink="http://www.w3.org/1999/xlink" width="960" zoomAndPan="magnify" viewBox="0 0 720 719.999996" height="960" preserveAspectRatio="xMidYMid meet" version="1.0"><defs><clipPath id="bb9d12e18a"><path d="M 4.496094 103.148438 L 715.496094 103.148438 L 715.496094 616.898438 L 4.496094 616.898438 Z M 4.496094 103.148438 " clip-rule="nonzero"/></clipPath><clipPath id="1ba6a45ecb"><path d="M 4.496094 142 L 715.496094 142 L 715.496094 578 L 4.496094 578 Z M 4.496094 142 " clip-rule="nonzero"/></clipPath><clipPath id="0630769213"><path d="M 4.496094 103.148438 L 360 103.148438 L 360 380 L 4.496094 380 Z M 4.496094 103.148438 " clip-rule="nonzero"/></clipPath></defs><g clip-path="url(#bb9d12e18a)"><path fill="#b22334" d="M 704.535156 142.753906 C 690.847656 119.226562 665.664062 103.25 636.496094 103.25 L 359.996094 103.25 L 359.996094 142.753906 Z M 4.496094 498.285156 L 715.496094 498.285156 L 715.496094 537.789062 L 4.496094 537.789062 Z M 359.996094 340.269531 L 715.496094 340.269531 L 715.496094 379.773438 L 359.996094 379.773438 Z M 359.996094 261.261719 L 715.496094 261.261719 L 715.496094 300.765625 L 359.996094 300.765625 Z M 4.496094 419.277344 L 715.496094 419.277344 L 715.496094 458.78125 L 4.496094 458.78125 Z M 83.496094 616.796875 L 636.496094 616.796875 C 665.664062 616.796875 690.847656 600.816406 704.535156 577.292969 L 15.457031 577.292969 C 29.144531 600.816406 54.324219 616.796875 83.496094 616.796875 Z M 359.996094 182.257812 L 715.496094 182.257812 L 715.496094 221.761719 L 359.996094 221.761719 Z M 359.996094 182.257812 " fill-opacity="1" fill-rule="nonzero"/></g><g clip-path="url(#1ba6a45ecb)"><path fill="#eeeeee" d="M 5.839844 551.199219 C 6.171875 553.039062 6.550781 554.875 7.003906 556.671875 C 7.515625 558.667969 8.148438 560.582031 8.820312 562.519531 C 10.578125 567.632812 12.710938 572.570312 15.398438 577.195312 L 15.457031 577.292969 L 704.535156 577.292969 L 704.574219 577.214844 C 707.238281 572.609375 709.371094 567.671875 711.128906 562.578125 C 711.800781 560.621094 712.453125 558.667969 712.96875 556.632812 C 713.421875 554.855469 713.796875 553.039062 714.132812 551.199219 C 714.941406 546.855469 715.496094 542.390625 715.496094 537.789062 L 4.496094 537.789062 C 4.496094 542.390625 5.046875 546.835938 5.839844 551.199219 Z M 4.496094 458.78125 L 715.496094 458.78125 L 715.496094 498.285156 L 4.496094 498.285156 Z M 4.496094 379.773438 L 4.496094 419.277344 L 715.496094 419.277344 L 715.496094 379.773438 Z M 359.996094 300.765625 L 715.496094 300.765625 L 715.496094 340.269531 L 359.996094 340.269531 Z M 359.996094 221.761719 L 715.496094 221.761719 L 715.496094 261.261719 L 359.996094 261.261719 Z M 4.496094 182.257812 C 4.496094 177.652344 5.085938 173.230469 5.839844 168.84375 C 5.046875 173.210938 4.496094 177.652344 4.496094 182.257812 Z M 15.457031 142.753906 L 15.398438 142.851562 Z M 7.023438 163.375 C 7.515625 161.359375 8.207031 159.441406 8.839844 157.507812 C 8.167969 159.441406 7.535156 161.378906 7.023438 163.375 Z M 359.996094 182.257812 L 715.496094 182.257812 C 715.496094 177.652344 714.941406 173.191406 714.132812 168.824219 C 713.796875 167.007812 713.441406 165.191406 712.96875 163.414062 C 712.433594 161.378906 711.800781 159.402344 711.109375 157.449219 C 709.351562 152.351562 707.21875 147.433594 704.554688 142.832031 C 704.574219 142.8125 704.554688 142.773438 704.535156 142.753906 L 359.996094 142.753906 Z M 359.996094 182.257812 " fill-opacity="1" fill-rule="nonzero"/></g><g clip-path="url(#0630769213)"><path fill="#3c3b6e" d="M 359.996094 103.25 L 83.496094 103.25 C 39.867188 103.25 4.496094 138.625 4.496094 182.257812 L 4.496094 379.773438 L 359.996094 379.773438 Z M 359.996094 103.25 " fill-opacity="1" fill-rule="nonzero"/></g><path fill="#ffffff" d="M 44.015625 157.09375 L 56.21875 165.960938 L 51.558594 180.28125 L 63.746094 171.433594 L 75.949219 180.28125 L 71.289062 165.960938 L 83.496094 157.09375 L 68.40625 157.09375 L 63.746094 142.753906 L 59.105469 157.09375 Z M 83.515625 196.597656 L 95.71875 205.464844 L 91.058594 219.785156 L 103.246094 210.9375 L 115.449219 219.785156 L 110.789062 205.464844 L 122.996094 196.597656 L 107.90625 196.597656 L 103.246094 182.257812 L 98.605469 196.597656 Z M 162.515625 196.597656 L 174.71875 205.464844 L 170.058594 219.785156 L 182.246094 210.9375 L 194.449219 219.785156 L 189.789062 205.464844 L 201.996094 196.597656 L 186.90625 196.597656 L 182.246094 182.257812 L 177.605469 196.597656 Z M 241.515625 196.597656 L 253.71875 205.464844 L 249.058594 219.785156 L 261.246094 210.9375 L 273.449219 219.785156 L 268.789062 205.464844 L 280.996094 196.597656 L 265.90625 196.597656 L 261.246094 182.257812 L 256.605469 196.597656 Z M 83.515625 275.601562 L 95.71875 284.472656 L 91.058594 298.792969 L 103.246094 289.941406 L 115.449219 298.792969 L 110.789062 284.472656 L 122.996094 275.601562 L 107.90625 275.601562 L 103.246094 261.261719 L 98.605469 275.601562 Z M 162.515625 275.601562 L 174.71875 284.472656 L 170.058594 298.792969 L 182.246094 289.941406 L 194.449219 298.792969 L 189.789062 284.472656 L 201.996094 275.601562 L 186.90625 275.601562 L 182.246094 261.261719 L 177.605469 275.601562 Z M 241.515625 275.601562 L 253.71875 284.472656 L 249.058594 298.792969 L 261.246094 289.941406 L 273.449219 298.792969 L 268.789062 284.472656 L 280.996094 275.601562 L 265.90625 275.601562 L 261.246094 261.261719 L 256.605469 275.601562 Z M 123.015625 157.09375 L 135.21875 165.960938 L 130.558594 180.28125 L 142.746094 171.433594 L 154.949219 180.28125 L 150.289062 165.960938 L 162.496094 157.09375 L 147.40625 157.09375 L 142.746094 142.753906 L 138.105469 157.09375 Z M 202.015625 157.09375 L 214.21875 165.960938 L 209.558594 180.28125 L 221.746094 171.433594 L 233.949219 180.28125 L 229.289062 165.960938 L 241.496094 157.09375 L 226.40625 157.09375 L 221.746094 142.753906 L 217.105469 157.09375 Z M 281.015625 157.09375 L 293.21875 165.960938 L 288.558594 180.28125 L 300.746094 171.433594 L 312.949219 180.28125 L 308.289062 165.960938 L 320.496094 157.09375 L 305.40625 157.09375 L 300.746094 142.753906 L 296.105469 157.09375 Z M 44.015625 236.101562 L 56.21875 244.96875 L 51.558594 259.289062 L 63.746094 250.441406 L 75.949219 259.289062 L 71.289062 244.96875 L 83.496094 236.101562 L 68.40625 236.101562 L 63.746094 221.761719 L 59.105469 236.101562 Z M 130.558594 259.289062 L 142.746094 250.441406 L 154.949219 259.289062 L 150.289062 244.96875 L 162.496094 236.101562 L 147.40625 236.101562 L 142.746094 221.761719 L 138.105469 236.101562 L 123.015625 236.101562 L 135.21875 244.96875 Z M 202.015625 236.101562 L 214.21875 244.96875 L 209.558594 259.289062 L 221.746094 250.441406 L 233.949219 259.289062 L 229.289062 244.96875 L 241.496094 236.101562 L 226.40625 236.101562 L 221.746094 221.761719 L 217.105469 236.101562 Z M 281.015625 236.101562 L 293.21875 244.96875 L 288.558594 259.289062 L 300.746094 250.441406 L 312.949219 259.289062 L 308.289062 244.96875 L 320.496094 236.101562 L 305.40625 236.101562 L 300.746094 221.761719 L 296.105469 236.101562 Z M 44.015625 315.105469 L 56.21875 323.976562 L 51.558594 338.296875 L 63.746094 329.445312 L 75.949219 338.296875 L 71.289062 323.976562 L 83.496094 315.105469 L 68.40625 315.105469 L 63.746094 300.765625 L 59.105469 315.105469 Z M 130.558594 338.296875 L 142.746094 329.445312 L 154.949219 338.296875 L 150.289062 323.976562 L 162.496094 315.105469 L 147.40625 315.105469 L 142.746094 300.765625 L 138.105469 315.105469 L 123.015625 315.105469 L 135.21875 323.976562 Z M 202.015625 315.105469 L 214.21875 323.976562 L 209.558594 338.296875 L 221.746094 329.445312 L 233.949219 338.296875 L 229.289062 323.976562 L 241.496094 315.105469 L 226.40625 315.105469 L 221.746094 300.765625 L 217.105469 315.105469 Z M 281.015625 315.105469 L 293.21875 323.976562 L 288.558594 338.296875 L 300.746094 329.445312 L 312.949219 338.296875 L 308.289062 323.976562 L 320.496094 315.105469 L 305.40625 315.105469 L 300.746094 300.765625 L 296.105469 315.105469 Z M 281.015625 315.105469 " fill-opacity="1" fill-rule="nonzero"/></svg>